<?xml version="1.0" encoding="iso-8859-1"?>
<!-- Generator: Adobe Illustrator 18.0.0, SVG Export Plug-In . SVG Version: 6.00 Build 0)  -->
<!DOCTYPE svg PUBLIC "-//W3C//DTD SVG 1.1//EN" "http://www.w3.org/Graphics/SVG/1.1/DTD/svg11.dtd">
<svg version="1.1" id="Capa_1" xmlns="http://www.w3.org/2000/svg" xmlns:xlink="http://www.w3.org/1999/xlink" x="0px" y="0px"
	 viewBox="0 0 385.33 385.33" style="enable-background:new 0 0 385.33 385.33;" xml:space="preserve">
<g>
	<path d="M179.338,61.47c-37.396,0-72.553,14.562-98.996,41.004c-54.584,54.585-54.584,143.403,0,197.99
		c26.443,26.442,61.6,41.004,98.996,41.004c37.396,0,72.553-14.561,98.995-41.004c54.584-54.587,54.584-143.405,0-197.99
		C251.891,76.031,216.733,61.47,179.338,61.47z M257.12,279.251c-20.776,20.775-48.4,32.217-77.782,32.217
		c-29.383,0-57.007-11.441-77.782-32.217c-42.889-42.89-42.889-112.676-0.001-155.564c20.776-20.775,48.4-32.217,77.783-32.217
		c29.382,0,57.006,11.441,77.782,32.217C300.009,166.575,300.008,236.361,257.12,279.251z"/>
	<path d="M237.214,136.594c-22.619,16.857-49.848,37.341-58.857,44.921c-4.787,0.234-9.506,2.156-13.161,5.812
		c-7.811,7.811-7.811,20.475,0,28.285c7.811,7.811,20.475,7.811,28.284,0c3.656-3.655,5.578-8.375,5.812-13.161
		c7.578-9.008,28.063-36.238,44.921-58.859c1.482-1.99,1.281-4.768-0.475-6.522C241.982,135.311,239.204,135.111,237.214,136.594z"
		/>
	<path d="M383.727,179.414c-1.166-7.912-2.544-15.734-4.513-23.488c-5.835-22.967-15.779-44.793-29.342-64.23
		c-13.123-18.807-29.456-35.342-48.225-48.535c-18.921-13.303-40.19-23.199-62.568-29.061c-12.207-3.197-24.781-5.289-37.388-5.957
		c-7.982-0.422-15.858-0.375-23.828,0.039c-9.674,0.503-19.252,2.036-28.729,3.976c-7.975,1.632-15.927,3.919-23.568,6.724
		c-6.023,2.209-12.05,4.51-17.8,7.377c-4.413,2.201-8.775,4.459-13.104,6.828c-3.728,2.037-7.34,4.404-10.85,6.785
		c-5.002,3.395-9.864,6.941-14.551,10.764C55.188,62.111,42.612,75.609,32.477,90.697c-6.06,9.021-11.402,18.387-15.916,28.285
		c-9.957,21.83-15.518,45.664-16.432,69.631c-0.463,12.109,0.336,24.193,2.151,36.166c1.889,12.445,5.257,24.576,9.619,36.371
		c6.376,17.23,15.721,33.32,26.919,47.846c14.908,19.338,34.262,35.602,55.623,47.371c20.627,11.363,43.615,18.652,67.045,21.115
		l-12.557-9.871c-18.468-4.537-36.207-12.221-52.097-22.619c-20.388-13.344-38.025-31.142-50.921-51.834
		c-10.021-16.078-17.358-33.799-21.433-52.311c-4.519-20.531-4.952-41.691-1.673-62.422c2.818-17.818,8.749-35.326,17.449-51.127
		c4.958-8.93,10.488-17.527,17.035-25.387c6.186-7.426,12.848-14.4,20.221-20.666c9.127-7.758,19.05-14.346,29.585-20.023
		c15.679-8.447,32.999-13.836,50.582-16.453c22.586-3.363,45.942-1.682,67.824,4.838c21.839,6.508,42.192,17.848,59.151,33.078
		c17.131,15.389,30.85,34.701,39.526,56.045c4.544,11.178,7.757,22.809,9.533,34.744l51.616,26.361
		C384.975,193.033,384.721,186.16,383.727,179.414z"/>
</g>
<g>
</g>
<g>
</g>
<g>
</g>
<g>
</g>
<g>
</g>
<g>
</g>
<g>
</g>
<g>
</g>
<g>
</g>
<g>
</g>
<g>
</g>
<g>
</g>
<g>
</g>
<g>
</g>
<g>
</g>
</svg>
