<?xml version="1.0" encoding="iso-8859-1"?>
<!-- Generator: Adobe Illustrator 19.0.0, SVG Export Plug-In . SVG Version: 6.00 Build 0)  -->
<svg version="1.1" id="Layer_1" xmlns="http://www.w3.org/2000/svg" xmlns:xlink="http://www.w3.org/1999/xlink" x="0px" y="0px"
	 viewBox="0 0 196.121 196.121" style="enable-background:new 0 0 196.121 196.121;" xml:space="preserve">
<g>
	<g>
		<g>
			<path d="M111.049,117.672h13.756c1.584,0,2.977-1.045,3.423-2.566c0.442-1.518-0.167-3.151-1.504-4.004L49.54,61.775
				c-1.466-0.937-3.412-0.679-4.579,0.63L0.907,111.732c-0.937,1.048-1.17,2.549-0.595,3.83c0.574,1.285,1.849,2.11,3.256,2.11
				h14.708l6.181,46.355H0.001v7.132h28.526h27.231h28.526h29.822h75.195v-7.132h-72.074L111.049,117.672z M21.396,110.541h-9.865
				l36.727-41.122l64.345,41.122h-5.627H21.396z M58.733,164.028l-4.538-24.961h21.276l4.542,24.961H58.733z M87.263,164.027v0.001
				l-5.307-29.164c-0.306-1.696-1.783-2.929-3.507-2.929H49.923c-1.059,0-2.061,0.47-2.737,1.282
				c-0.679,0.811-0.961,1.88-0.77,2.921l5.07,27.889H31.652l-6.181-46.355h78.381l6.181,46.355H87.263z"/>
			<path d="M116.844,85.747c-0.274-0.067-0.535-0.167-0.829-0.167c-4.983,0-9.04-4.799-9.04-10.697
				c0-5.899,4.057-10.697,9.04-10.697c1.971,0,3.566-1.595,3.566-3.566s-1.595-3.566-3.566-3.566
				c-8.918,0-16.172,7.999-16.172,17.829s7.254,17.829,16.172,17.829c0.294,0,0.556-0.1,0.829-0.167
				c0.273,0.067,0.535,0.167,0.829,0.167h74.882c1.971,0,3.566-1.595,3.566-3.566s-1.595-3.566-3.566-3.566h-74.882
				C117.379,85.58,117.118,85.68,116.844,85.747z"/>
			<path d="M192.555,99.843h-39.224c-1.971,0-3.566,1.595-3.566,3.566s1.595,3.566,3.566,3.566h39.224
				c1.971,0,3.566-1.595,3.566-3.566C196.121,101.438,194.526,99.843,192.555,99.843z"/>
			<path d="M131.936,78.448h39.224c1.971,0,3.566-1.595,3.566-3.566c0-1.971-1.595-3.566-3.566-3.566h-39.224
				c-1.971,0-3.566,1.595-3.566,3.566C128.371,76.854,129.965,78.448,131.936,78.448z"/>
			<path d="M117.673,42.79c0-1.971-1.595-3.566-3.566-3.566H67.752c-1.971,0-3.566,1.595-3.566,3.566s1.595,3.566,3.566,3.566
				h46.356C116.078,46.356,117.673,44.761,117.673,42.79z"/>
			<path d="M30.436,60.619c1.971,0,3.566-1.595,3.566-3.566s-1.595-3.566-3.566-3.566c-4.983,0-9.04-4.799-9.04-10.697
				c0-5.898,4.057-10.697,9.04-10.697c0.294,0,0.555-0.1,0.829-0.167c0.273,0.067,0.535,0.167,0.829,0.167h92.711
				c1.971,0,3.566-1.595,3.566-3.566c0-1.971-1.595-3.566-3.566-3.566H32.094c-0.294,0-0.556,0.1-0.829,0.167
				c-0.273-0.067-0.535-0.167-0.829-0.167c-8.918,0-16.172,7.999-16.172,17.829C14.264,52.62,21.518,60.619,30.436,60.619z"/>
		</g>
	</g>
</g>
<g>
</g>
<g>
</g>
<g>
</g>
<g>
</g>
<g>
</g>
<g>
</g>
<g>
</g>
<g>
</g>
<g>
</g>
<g>
</g>
<g>
</g>
<g>
</g>
<g>
</g>
<g>
</g>
<g>
</g>
</svg>
