<?xml version="1.0" encoding="iso-8859-1"?>
<!-- Generator: Adobe Illustrator 17.1.0, SVG Export Plug-In . SVG Version: 6.00 Build 0)  -->
<!DOCTYPE svg PUBLIC "-//W3C//DTD SVG 1.1//EN" "http://www.w3.org/Graphics/SVG/1.1/DTD/svg11.dtd">
<svg version="1.1" id="Capa_1" xmlns="http://www.w3.org/2000/svg" xmlns:xlink="http://www.w3.org/1999/xlink" x="0px" y="0px"
	 viewBox="0 0 171.587 171.587" style="enable-background:new 0 0 171.587 171.587;" xml:space="preserve">
<path style="fill:#000002;" d="M152.159,171.587H19.409c-1.381,0-2.5-1.119-2.5-2.5V84.562H2.815c-1.021,0-1.938-0.621-2.319-1.567
	c-0.381-0.947-0.147-2.031,0.589-2.737L84.053,0.696c0.967-0.928,2.494-0.928,3.461,0l82.788,79.389
	c0.591,0.457,0.97,1.173,0.97,1.977c0,1.381-1.119,2.5-2.5,2.5c-0.005,0-0.013,0-0.02,0h-14.094v84.525
	C154.659,170.468,153.54,171.587,152.159,171.587z M21.909,166.587h127.75V82.062c0-1.381,1.119-2.5,2.5-2.5h10.375L85.784,5.964
	L9.034,79.562h10.375c1.381,0,2.5,1.119,2.5,2.5V166.587z M86.089,156.438c-27.168,0-49.271-22.103-49.271-49.27
	c0-27.001,21.965-49.104,48.962-49.269l0.309-0.001c27.168,0,49.271,22.103,49.271,49.27S113.257,156.438,86.089,156.438z
	 M59.011,142.169c7.49,5.809,16.887,9.269,27.078,9.269s19.588-3.461,27.079-9.27c-2.372-0.532-4.858-1.807-7.422-3.808
	c-3.559-2.778-6.96-6.719-9.098-10.543c-2.724-4.872-3.085-8.83-1.043-11.445c0.901-1.155,2.713-2.531,6.22-2.531
	c5.041,0,12.267,2.893,17.571,7.035c2.844,2.22,4.794,4.561,5.823,6.983c3.28-6.178,5.14-13.222,5.14-20.69
	c0-21.191-14.968-38.952-34.886-43.269c0.942,1.993,1.552,4.642,1.552,8.159c0,8.797-3.95,21.523-11.092,21.523
	S74.843,80.855,74.843,72.058c0-3.471,0.596-6.096,1.518-8.079c-19.73,4.458-34.542,22.172-34.542,43.189
	c0,7.469,1.859,14.513,5.14,20.691c1.029-2.422,2.98-4.764,5.824-6.983c5.304-4.142,12.529-7.035,17.57-7.035
	c3.507,0,5.318,1.376,6.22,2.531c2.042,2.616,1.681,6.573-1.043,11.445c-2.138,3.824-5.539,7.765-9.098,10.543
	C63.869,140.362,61.382,141.637,59.011,142.169z M101.826,118.841c-1.129,0-1.981,0.228-2.278,0.608
	c-0.433,0.555-0.4,2.591,1.466,5.928c1.829,3.272,4.749,6.652,7.81,9.042c2.543,1.985,4.908,3.035,6.84,3.035h0.001
	c1.622,0,2.973-0.72,4.128-2.2c1.112-1.424,1.496-2.851,1.174-4.359c-0.411-1.925-2.018-4.027-4.645-6.078
	C111.956,121.411,105.725,118.841,101.826,118.841z M70.353,118.841c-3.899,0-10.131,2.569-14.493,5.976
	c-2.628,2.051-4.234,4.153-4.646,6.079c-0.323,1.509,0.061,2.935,1.173,4.359c1.155,1.48,2.507,2.2,4.13,2.2
	c1.931,0,4.296-1.049,6.838-3.035c3.062-2.39,5.981-5.77,7.811-9.042c1.866-3.337,1.899-5.374,1.466-5.928
	C72.334,119.069,71.482,118.841,70.353,118.841z M85.895,62.899l-0.083,0c-3.955,0.052-5.969,3.133-5.969,9.159
	c0,8.358,3.854,16.523,6.091,16.523s6.092-8.165,6.092-16.523c0-6.054-2.033-9.136-6.044-9.16L85.895,62.899z M85.989,116.847
	c-5.745,0-10.419-4.674-10.419-10.418S80.244,96.01,85.989,96.01c5.744,0,10.418,4.674,10.418,10.418S91.733,116.847,85.989,116.847
	z M85.989,101.01c-2.988,0-5.419,2.431-5.419,5.418s2.431,5.418,5.419,5.418c2.987,0,5.418-2.431,5.418-5.418
	S88.976,101.01,85.989,101.01z"/>
<g>
</g>
<g>
</g>
<g>
</g>
<g>
</g>
<g>
</g>
<g>
</g>
<g>
</g>
<g>
</g>
<g>
</g>
<g>
</g>
<g>
</g>
<g>
</g>
<g>
</g>
<g>
</g>
<g>
</g>
</svg>
