<?xml version="1.0"?>
<svg xmlns="http://www.w3.org/2000/svg" viewBox="0 0 26 26" enable-background="new 0 0 26 26">
    <path d="M 7 0 C 5.3 0 4 1.3 4 3 L 4 7.78125 C 2.7365483 7.3423437 1.3675715 7 0 7 L 0 9 C 1.30375 9 2.6154895 9.4428258 4 9.90625 L 4 11.78125 C 2.7365483 11.342344 1.3675715 11 0 11 L 0 13 C 1.30375 13 2.6154895 13.442826 4 13.90625 L 4 15.75 C 2.699908 15.319599 1.3501923 15 0 15 L 0 17 C 1.30375 17 2.6154895 17.442826 4 17.90625 L 4 23 C 4 24.7 5.3 26 7 26 L 19 26 C 20.7 26 22 24.7 22 23 L 22 19.8125 L 20 19 L 20 23 C 20 23.6 19.6 24 19 24 L 7 24 C 6.4 24 6 23.6 6 23 L 6 3 C 6 2.4 6.4 2 7 2 L 19 2 C 19.6 2 20 2.4 20 3 L 20 7.46875 C 19.035752 7.1865556 18.038948 7 17 7 C 15.3 7 13.89375 7.49375 12.59375 8.09375 C 11.39375 8.59375 10.3 9 9 9 C 8.3 9 7.7 8.8875 7 8.6875 L 7 10.6875 C 7.7 10.8875 8.3 11 9 11 C 10.7 11 12.0125 10.50625 13.3125 9.90625 C 14.5125 9.50625 15.7 9 17 9 C 18.4 9 19.6875 9.50625 21.1875 9.90625 C 22.6875 10.40625 24.3 11 26 11 L 26 9 C 24.662628 9 23.416379 8.545756 22 8.15625 L 22 3 C 22 1.3 20.7 0 19 0 L 7 0 z M 17 11 C 15.3 11 13.89375 11.49375 12.59375 12.09375 C 11.39375 12.59375 10.3 13 9 13 C 8.3 13 7.7 12.8875 7 12.6875 L 7 14.6875 C 7.7 14.8875 8.3 15 9 15 C 10.7 15 12.0125 14.50625 13.3125 13.90625 C 14.5125 13.40625 15.6 13 17 13 C 18.4 13 19.6875 13.50625 21.1875 13.90625 C 22.6875 14.40625 24.3 15 26 15 L 26 13 C 24.6 13 23.3125 12.49375 21.8125 12.09375 C 20.3125 11.49375 18.7 11 17 11 z M 17 15 C 15.3 15 13.89375 15.49375 12.59375 16.09375 C 11.39375 16.59375 10.3 17 9 17 C 8.3 17 7.7 16.8875 7 16.6875 L 7 18.6875 C 7.7 18.8875 8.3 19 9 19 C 10.7 19 12.0125 18.50625 13.3125 17.90625 C 14.5125 17.40625 15.6 17 17 17 C 18.4 17 19.6875 17.50625 21.1875 17.90625 C 22.6875 18.40625 24.3 19 26 19 L 26 17 C 24.6 17 23.3125 16.49375 21.8125 16.09375 C 20.3125 15.49375 18.7 15 17 15 z"/>
</svg>
