<?xml version="1.0" encoding="UTF-8" standalone="no"?>
<!-- Created with Inkscape (http://www.inkscape.org/) -->

<svg
   width="83.086792mm"
   height="69.920204mm"
   viewBox="0 0 83.086792 69.920204"
   version="1.1"
   id="svg5"
   xmlns="http://www.w3.org/2000/svg"
   xmlns:svg="http://www.w3.org/2000/svg">
  <defs
     id="defs2" />
  <g
     id="layer1"
     transform="translate(-55.121916,-78.309531)">
    <g
       id="g1088">
      <path
         style="color:#000000;fill:#000000;stroke-width:0.264583;-inkscape-stroke:none"
         d="m 98.723512,147.61104 c -0.96275,-0.52421 -2.03621,-1.87911 -2.03829,-2.5727 -0.002,-0.61149 3.2465,-0.43449 3.641778,0.19844 0.53701,0.85989 2.72097,0.57771 2.38122,-0.30767 -0.0762,-0.19859 -1.06009,-0.63219 -2.1864,-0.96355 -3.334068,-0.9809 -4.554028,-2.96649 -3.020468,-4.91609 2.06093,-2.62005 8.178748,-1.7255 8.178748,1.19591 0,0.65779 -3.02111,0.74702 -3.2707,0.0966 -0.0949,-0.24734 -0.49846,-0.39688 -1.07103,-0.39688 -2.046138,0 -1.14553,0.96607 1.60772,1.72455 3.43639,0.94668 4.24548,4.06993 1.51738,5.85744 -1.09922,0.72024 -4.480518,0.76968 -5.739958,0.0839 z m 11.189938,0.23963 c -4.4212,-1.75778 -3.92813,-8.83167 0.70956,-10.17988 4.34691,-1.26369 7.94973,2.43653 6.70414,6.88535 -0.78923,2.81886 -4.48231,4.46 -7.4137,3.29453 z m 3.33382,-2.55179 c 1.47185,-0.98279 1.04285,-4.84391 -0.58354,-5.25211 -1.96871,-0.49411 -3.16492,2.73773 -1.79857,4.85928 0.38728,0.60134 1.73659,0.82385 2.38211,0.39283 z m -48.842202,-2.61527 v -5.19901 l 3.539539,0.14841 c 4.801911,0.20133 5.720875,0.69938 5.720875,3.10048 0,0.81138 -0.17034,1.2581 -0.67043,1.7582 -0.670441,0.67043 -0.670441,0.67043 0,1.1978 0.5781,0.45474 0.67043,0.73606 0.67043,2.04274 0,0.83346 0.14288,1.65826 0.3175,1.83288 0.24695,0.24695 -0.10583,0.3175 -1.587497,0.3175 h -1.905 v -1.20802 c 0,-1.76042 -0.337129,-2.23156 -1.59681,-2.23156 -1.049024,0 -1.049024,0 -1.049024,1.71979 v 1.71979 h -1.719792 -1.719791 z m 5.666902,-0.78243 c 1.126008,-0.43209 0.216241,-1.69148 -1.221902,-1.69148 -0.972659,0 -1.005417,0.0302 -1.005417,0.92604 0,0.95686 0.911863,1.27023 2.227319,0.76544 z m 5.445602,0.81534 v -5.16609 l 4.16718,0.0729 4.16719,0.0729 v 1.19063 1.19062 l -2.4474,0.0761 c -2.40362,0.0747 -2.44739,0.0877 -2.44739,0.7276 0,0.63803 0.0439,0.65153 2.11667,0.65153 h 2.11666 v 1.19063 1.19062 h -2.11666 c -2.11667,0 -2.11667,0 -2.11667,0.79375 0,0.79375 0,0.79375 2.51354,0.79375 h 2.51354 v 1.19063 1.19062 h -4.23333 -4.23333 z m 10.1146,0.0729 0.0719,-5.09323 1.03311,-0.0845 c 1.77111,-0.14496 2.05759,0.0637 3.72939,2.71625 l 1.5875,2.51882 0.13229,-2.57526 0.13229,-2.57526 1.52135,-0.0793 1.52136,-0.0793 v 5.17258 5.17257 h -1.58881 -1.58881 l -1.65234,-2.57824 -1.65233,-2.57824 -0.0757,2.57824 -0.0757,2.57824 h -1.58364 -1.58363 z m 33.337538,0 0.0719,-5.09323 h 1.55563 c 1.55564,0 1.55564,0 3.175,2.56789 0.89066,1.41233 1.6789,2.57336 1.75166,2.58005 0.0728,0.007 0.13229,-1.14885 0.13229,-2.56788 v -2.58006 h 1.5875 1.5875 l 0.0719,5.09323 0.0719,5.09323 h -1.6983 -1.6983 l -1.62828,-2.51354 c -0.89556,-1.38245 -1.67852,-2.51354 -1.73991,-2.51354 -0.0614,0 -0.0373,1.13109 0.0535,2.51354 l 0.16511,2.51354 h -1.76541 -1.76541 z m 11.36277,-2.3983 c -0.76971,-0.81933 -0.72535,-1.61244 0.12775,-2.28348 1.14218,-0.89844 2.47197,-0.17548 2.47197,1.34391 0,1.40187 -1.61655,1.9861 -2.59972,0.93957 z m 2.03959,-0.50224 c 0.31597,-0.85417 0.0568,-1.51467 -0.66555,-1.69596 -0.77312,-0.19404 -1.42016,0.29358 -1.42016,1.07025 0,1.22935 1.67637,1.73225 2.08571,0.62571 z m -1.55249,-0.55744 c -0.004,-0.89763 0.0625,-1.00114 0.59126,-0.92604 0.47559,0.0675 0.59712,0.25747 0.60428,0.94444 0.009,0.86686 -0.24774,1.14085 -0.49594,0.52917 -0.10099,-0.24889 -0.20365,-0.23252 -0.41487,0.0661 -0.21831,0.30868 -0.28158,0.1723 -0.28473,-0.61371 z m -66.619841,-9.24202 0.07304,-4.03489 h 10.715623 10.71562 l 0.073,4.03489 0.073,4.0349 h -10.8617 -10.8617 z m 43.067871,-3.22331 c 0,-6.68283 -0.0367,-7.26932 -0.46303,-7.3983 -3.75881,-1.13726 -9.002608,-0.78387 -14.923948,1.00574 -6.03379,1.8236 -5.26282,1.74452 -17.0077,1.74452 H 64.118225 l 0.07728,-2.05052 0.07728,-2.05052 11.641667,-0.13229 c 11.64167,-0.1323 11.64167,-0.1323 14.15521,-0.97643 8.85136,-2.97259 12.847888,-3.01157 22.079088,-0.21535 8.04354,2.43647 17.08822,2.42868 25.49155,-0.022 0.60084,-0.17522 0.60626,-0.15577 0.52917,1.90072 l -0.0779,2.07775 -2.24896,0.57406 c -1.23692,0.31574 -3.20146,0.71996 -4.36562,0.89828 -1.16417,0.17832 -2.2655,0.36576 -2.4474,0.41652 -0.25148,0.0702 -0.33073,1.45729 -0.33073,5.78915 v 5.69684 h -10.71562 -10.71563 z m 12.03854,-12.46185 c -3.17418,-0.41505 -4.31937,-0.66358 -8.46666,-1.83745 -8.27918,-2.34336 -11.689408,-2.2882 -19.933068,0.32244 l -3.87948,1.22856 -11.45459,0.0944 -11.454597,0.0944 0.07751,-2.06359 0.07751,-2.06359 11.641667,-0.14274 11.64167,-0.14273 3.03909,-0.99047 c 6.85236,-2.23324 9.998058,-2.56191 15.547918,-1.62449 l 1.12449,0.18994 v -4.66402 -4.664019 H 96.551942 85.836322 v 4.101039 4.10104 H 74.981682 64.127047 l 0.07287,-4.14106 0.07286,-4.141059 3.96875,-2.43929 c 2.182813,-1.34162 8.790785,-5.38266 14.684375,-8.98011 5.89359,-3.59744 11.33468,-6.94381 12.0913,-7.43637 l 1.37567,-0.89556 5.507938,3.36725 c 3.02937,1.85198 10.29662,6.28428 16.14943,9.84954 l 10.64146,6.48229 0.004,6.308679 0.004,6.30868 1.38906,-0.17995 c 1.26698,-0.16413 6.08524,-1.19482 7.55236,-1.61556 0.60048,-0.1722 0.60621,-0.15169 0.52917,1.89428 l -0.0779,2.06837 -1.85208,0.481 c -5.79794,1.50577 -11.26816,1.87083 -16.93333,1.13006 z"
         id="path962" />
    </g>
  </g>
</svg>
