<?xml version="1.0" encoding="UTF-8" standalone="no"?>
<svg
   width="98.796mm"
   height="93.077mm"
   viewBox="497.006134 -255.306824 98.795624 93.076950"
   version="1.1"
   id="svg388"
   sodipodi:docname="logo2.svg"
   inkscape:version="1.1 (c4e8f9e, 2021-05-24)"
   xmlns:inkscape="http://www.inkscape.org/namespaces/inkscape"
   xmlns:sodipodi="http://sodipodi.sourceforge.net/DTD/sodipodi-0.dtd"
   xmlns="http://www.w3.org/2000/svg"
   xmlns:svg="http://www.w3.org/2000/svg">
  <defs
     id="defs392" />
  <sodipodi:namedview
     id="namedview390"
     pagecolor="#ffffff"
     bordercolor="#666666"
     borderopacity="1.0"
     inkscape:pageshadow="2"
     inkscape:pageopacity="0.0"
     inkscape:pagecheckerboard="0"
     inkscape:document-units="mm"
     showgrid="false"
     inkscape:zoom="1.1072515"
     inkscape:cx="152.17862"
     inkscape:cy="192.81979"
     inkscape:window-width="1296"
     inkscape:window-height="937"
     inkscape:window-x="0"
     inkscape:window-y="25"
     inkscape:window-maximized="0"
     inkscape:current-layer="svg388" />
  <path
     style="fill:none;stroke:#000000;stroke-width:2.06699875;stroke-miterlimit:4;stroke-dasharray:none"
     d="m 560.643,-235.22034 c 11.22364,6.8522 20.92248,12.75944 21.55299,13.12721 l 1.14639,0.66866 v 8.42267 8.42267 l 1.85185,-0.23654 c 1.70539,-0.21781 8.1956,-1.60507 10.05292,-2.14876 0.77366,-0.22647 0.79365,-0.16501 0.79365,2.44066 v 2.67297 l -1.85185,0.55205 c -5.49804,1.63898 -8.80079,2.09439 -15.25575,2.10357 -7.40021,0.0105 -11.46979,-0.55844 -18.8129,-2.63018 -11.30383,-3.18921 -15.88857,-3.22171 -25.94049,-0.18387 -7.95438,2.40392 -6.95568,2.30217 -22.59637,2.30217 H 497.2456 l 0.10303,-2.73369 0.10302,-2.73369 15.52029,-0.19029 15.5203,-0.19028 4.05644,-1.32721 c 8.83837,-2.89178 13.56148,-3.38447 20.72312,-2.16172 l 1.49912,0.25596 v -6.21793 -6.21793 h -14.28573 -14.28572 v 5.46738 5.46738 h -14.47105 -14.47105 l 0.0971,-5.52415 0.0971,-5.52416 20.49305,-12.55346 c 11.27117,-6.9044 20.87436,-12.82291 21.3404,-13.15225 0.46605,-0.32933 0.87075,-0.60711 0.89933,-0.61728 0.0286,-0.0102 9.23494,5.58784 20.45857,12.44004 z"
     id="path1621" />
  <path
     style="fill:none;stroke:#000000;stroke-width:2.06699875;stroke-miterlimit:4;stroke-dasharray:none"
     d="m 553.80917,-198.25945 c 1.89609,0.37704 4.72801,1.09006 6.29317,1.58449 6.8464,2.16278 16.67508,3.2853 23.10099,2.63834 3.23668,-0.32586 8.90722,-1.431 12.05947,-2.35029 0.80061,-0.23348 0.80818,-0.20653 0.70547,2.50777 l -0.10384,2.74377 -2.46914,0.67593 c -1.35802,0.37176 -4.1358,0.95672 -6.17284,1.29991 l -3.70371,0.62398 -0.0951,7.64177 -0.0951,7.64177 h -14.27885 -14.27885 v -9.67642 c 0,-8.91006 -0.0489,-9.69105 -0.61728,-9.86124 -0.33951,-0.10166 -1.72198,-0.37254 -3.07216,-0.60196 -4.99585,-0.84887 -11.29727,0.10144 -20.6492,3.11409 l -2.99824,0.96586 -15.09448,0.10764 -15.09447,0.10764 0.10328,-2.74801 0.10328,-2.74801 15.52029,-0.17637 15.5203,-0.17636 3.35097,-1.12538 c 9.7638,-3.27901 14.24055,-3.72512 21.96596,-2.18892 z"
     id="path1623" />
  <path
     style="fill:none;stroke:#000000;stroke-width:2.06699875;stroke-miterlimit:4;stroke-dasharray:none"
     d="m 526.12047,-178.6312 0.0974,5.37919 h -14.47128 -14.47128 v -5.23222 c 0,-2.87772 0.1076,-5.33982 0.2391,-5.47133 0.13151,-0.1315 6.59977,-0.19764 14.37391,-0.14697 l 14.13481,0.0921 z"
     id="path1625" />
</svg>
