<?xml version="1.0" encoding="iso-8859-1"?>
<!-- Uploaded to: SVG Repo, www.svgrepo.com, Generator: SVG Repo Mixer Tools -->
<svg fill="#000000" height="800px" width="800px" version="1.1" id="Layer_1" xmlns="http://www.w3.org/2000/svg" xmlns:xlink="http://www.w3.org/1999/xlink" 
	 viewBox="0 0 491.52 491.52" xml:space="preserve">
<g>
	<g>
		<path d="M471.04,23.993H20.48C9.169,23.993,0,33.163,0,44.473v286.72c0,11.311,9.169,20.48,20.48,20.48h160.084
			c0.573,2.235,1.068,4.47,1.467,6.708c5.688,31.815,0.624,60.624-12.936,74.184c-7.998,7.998-7.998,20.965,0,28.963
			c7.998,7.998,20.965,7.998,28.963,0c24.643-24.643,32.045-66.345,24.378-109.855H386.11c0.573,2.235,1.068,4.47,1.467,6.708
			c5.688,31.815,0.624,60.624-12.936,74.184c-7.998,7.998-7.998,20.965,0,28.963c7.998,7.998,20.965,7.998,28.963,0
			c24.643-24.643,32.045-66.345,24.378-109.855h43.058c11.311,0,20.48-9.169,20.48-20.48V44.473
			C491.52,33.163,482.351,23.993,471.04,23.993z M450.56,310.713h-36.529c-6.22-12.21-14.162-24.171-23.718-36.009
			c-11.274-13.967-17.731-27.959-20.324-45.911h39.614l-61.44-102.4l-61.44,102.4h42.002c2.993,27.904,12.526,50.342,29.716,71.639
			c2.779,3.442,5.363,6.868,7.771,10.281H208.485c-6.22-12.21-14.162-24.171-23.718-36.009
			c-11.274-13.967-17.731-27.959-20.324-45.911h39.614l-61.44-102.4l-61.44,102.4h42.002c2.993,27.904,12.526,50.342,29.716,71.639
			c2.779,3.442,5.363,6.868,7.771,10.281H40.96V64.953h409.6V310.713z"/>
	</g>
</g>
</svg>